<svg width="23" height="23" viewBox="0 0 23 23" fill="none" xmlns="http://www.w3.org/2000/svg">
<mask id="mask0_629_2856" style="mask-type:alpha" maskUnits="userSpaceOnUse" x="0" y="0" width="23" height="23">
<rect width="23" height="23" fill="#D9D9D9"/>
</mask>
<g mask="url(#mask0_629_2856)">
<path d="M10.1214 15.2449L16.2512 9.11519L15.5729 8.43693L10.1214 13.8884L7.39019 11.1572L6.71193 11.8354L10.1214 15.2449ZM11.5031 20.125C10.3105 20.125 9.18914 19.8987 8.13912 19.446C7.08927 18.9934 6.17598 18.3791 5.39925 17.6031C4.62252 16.8272 4.00767 15.9147 3.5547 14.8657C3.10157 13.8168 2.875 12.6959 2.875 11.5031C2.875 10.3105 3.10133 9.18914 3.55398 8.13912C4.00663 7.08927 4.62092 6.17598 5.39685 5.39925C6.17278 4.62252 7.08528 4.00767 8.13433 3.5547C9.18323 3.10157 10.3041 2.875 11.4969 2.875C12.6895 2.875 13.8109 3.10133 14.8609 3.55398C15.9107 4.00663 16.824 4.62092 17.6007 5.39685C18.3775 6.17278 18.9923 7.08528 19.4453 8.13433C19.8984 9.18323 20.125 10.3041 20.125 11.4969C20.125 12.6895 19.8987 13.8109 19.446 14.8609C18.9934 15.9107 18.3791 16.824 17.6031 17.6007C16.8272 18.3775 15.9147 18.9923 14.8657 19.4453C13.8168 19.8984 12.6959 20.125 11.5031 20.125ZM11.5 19.1667C13.6403 19.1667 15.4531 18.424 16.9385 16.9385C18.424 15.4531 19.1667 13.6403 19.1667 11.5C19.1667 9.35972 18.424 7.54688 16.9385 6.06146C15.4531 4.57604 13.6403 3.83333 11.5 3.83333C9.35972 3.83333 7.54688 4.57604 6.06146 6.06146C4.57604 7.54688 3.83333 9.35972 3.83333 11.5C3.83333 13.6403 4.57604 15.4531 6.06146 16.9385C7.54688 18.424 9.35972 19.1667 11.5 19.1667Z" fill="#D81100"/>
</g>
</svg>
