<svg width="16" height="16" viewBox="0 0 16 16" fill="none" xmlns="http://www.w3.org/2000/svg">
<mask id="mask0_8251_1272" style="mask-type:alpha" maskUnits="userSpaceOnUse" x="0" y="0" width="16" height="16">
<rect width="16" height="16" fill="#D9D9D9"/>
</mask>
<g mask="url(#mask0_8251_1272)">
<path d="M8 9.33337C7.81111 9.33337 7.65278 9.26949 7.525 9.14171C7.39722 9.01393 7.33333 8.8556 7.33333 8.66671C7.33333 8.47782 7.39722 8.31949 7.525 8.19171C7.65278 8.06393 7.81111 8.00004 8 8.00004C8.18889 8.00004 8.34722 8.06393 8.475 8.19171C8.60278 8.31949 8.66667 8.47782 8.66667 8.66671C8.66667 8.8556 8.60278 9.01393 8.475 9.14171C8.34722 9.26949 8.18889 9.33337 8 9.33337ZM5.33333 9.33337C5.14444 9.33337 4.98611 9.26949 4.85833 9.14171C4.73056 9.01393 4.66667 8.8556 4.66667 8.66671C4.66667 8.47782 4.73056 8.31949 4.85833 8.19171C4.98611 8.06393 5.14444 8.00004 5.33333 8.00004C5.52222 8.00004 5.68056 8.06393 5.80833 8.19171C5.93611 8.31949 6 8.47782 6 8.66671C6 8.8556 5.93611 9.01393 5.80833 9.14171C5.68056 9.26949 5.52222 9.33337 5.33333 9.33337ZM10.6667 9.33337C10.4778 9.33337 10.3194 9.26949 10.1917 9.14171C10.0639 9.01393 10 8.8556 10 8.66671C10 8.47782 10.0639 8.31949 10.1917 8.19171C10.3194 8.06393 10.4778 8.00004 10.6667 8.00004C10.8556 8.00004 11.0139 8.06393 11.1417 8.19171C11.2694 8.31949 11.3333 8.47782 11.3333 8.66671C11.3333 8.8556 11.2694 9.01393 11.1417 9.14171C11.0139 9.26949 10.8556 9.33337 10.6667 9.33337ZM8 12C7.81111 12 7.65278 11.9362 7.525 11.8084C7.39722 11.6806 7.33333 11.5223 7.33333 11.3334C7.33333 11.1445 7.39722 10.9862 7.525 10.8584C7.65278 10.7306 7.81111 10.6667 8 10.6667C8.18889 10.6667 8.34722 10.7306 8.475 10.8584C8.60278 10.9862 8.66667 11.1445 8.66667 11.3334C8.66667 11.5223 8.60278 11.6806 8.475 11.8084C8.34722 11.9362 8.18889 12 8 12ZM5.33333 12C5.14444 12 4.98611 11.9362 4.85833 11.8084C4.73056 11.6806 4.66667 11.5223 4.66667 11.3334C4.66667 11.1445 4.73056 10.9862 4.85833 10.8584C4.98611 10.7306 5.14444 10.6667 5.33333 10.6667C5.52222 10.6667 5.68056 10.7306 5.80833 10.8584C5.93611 10.9862 6 11.1445 6 11.3334C6 11.5223 5.93611 11.6806 5.80833 11.8084C5.68056 11.9362 5.52222 12 5.33333 12ZM10.6667 12C10.4778 12 10.3194 11.9362 10.1917 11.8084C10.0639 11.6806 10 11.5223 10 11.3334C10 11.1445 10.0639 10.9862 10.1917 10.8584C10.3194 10.7306 10.4778 10.6667 10.6667 10.6667C10.8556 10.6667 11.0139 10.7306 11.1417 10.8584C11.2694 10.9862 11.3333 11.1445 11.3333 11.3334C11.3333 11.5223 11.2694 11.6806 11.1417 11.8084C11.0139 11.9362 10.8556 12 10.6667 12ZM3.33333 14.6667C2.96667 14.6667 2.65278 14.5362 2.39167 14.275C2.13056 14.0139 2 13.7 2 13.3334V4.00004C2 3.63337 2.13056 3.31949 2.39167 3.05837C2.65278 2.79726 2.96667 2.66671 3.33333 2.66671H4V1.33337H5.33333V2.66671H10.6667V1.33337H12V2.66671H12.6667C13.0333 2.66671 13.3472 2.79726 13.6083 3.05837C13.8694 3.31949 14 3.63337 14 4.00004V13.3334C14 13.7 13.8694 14.0139 13.6083 14.275C13.3472 14.5362 13.0333 14.6667 12.6667 14.6667H3.33333ZM3.33333 13.3334H12.6667V6.66671H3.33333V13.3334Z" fill="#101763"/>
</g>
</svg>
