<svg width="24" height="24" viewBox="0 0 24 24" fill="none" xmlns="http://www.w3.org/2000/svg">
<mask id="mask0_8251_1303" style="mask-type:alpha" maskUnits="userSpaceOnUse" x="0" y="0" width="24" height="24">
<rect width="24" height="24" fill="#D9D9D9"/>
</mask>
<g mask="url(#mask0_8251_1303)">
<path d="M10.5603 15.9078L16.9565 9.5115L16.2488 8.80375L10.5603 14.4923L7.71028 11.6423L7.00253 12.35L10.5603 15.9078ZM12.002 21C10.7575 21 9.58745 20.7638 8.49178 20.2915C7.39628 19.8192 6.44328 19.1782 5.63278 18.3685C4.82228 17.5588 4.1807 16.6067 3.70803 15.512C3.2352 14.4175 2.99878 13.2479 2.99878 12.0033C2.99878 10.7587 3.23495 9.58867 3.70728 8.493C4.17961 7.3975 4.82061 6.4445 5.63028 5.634C6.43995 4.8235 7.39211 4.18192 8.48678 3.70925C9.58128 3.23642 10.7509 3 11.9955 3C13.24 3 14.4101 3.23617 15.5058 3.7085C16.6013 4.18083 17.5543 4.82183 18.3648 5.6315C19.1753 6.44117 19.8169 7.39333 20.2895 8.488C20.7624 9.5825 20.9988 10.7521 20.9988 11.9967C20.9988 13.2413 20.7626 14.4113 20.2903 15.507C19.8179 16.6025 19.1769 17.5555 18.3673 18.366C17.5576 19.1765 16.6054 19.8181 15.5108 20.2908C14.4163 20.7636 13.2467 21 12.002 21ZM11.9988 20C14.2321 20 16.1238 19.225 17.6738 17.675C19.2238 16.125 19.9988 14.2333 19.9988 12C19.9988 9.76667 19.2238 7.875 17.6738 6.325C16.1238 4.775 14.2321 4 11.9988 4C9.76545 4 7.87378 4.775 6.32378 6.325C4.77378 7.875 3.99878 9.76667 3.99878 12C3.99878 14.2333 4.77378 16.125 6.32378 17.675C7.87378 19.225 9.76545 20 11.9988 20Z" fill="#D81100"/>
</g>
</svg>
