<svg width="16" height="16" viewBox="0 0 16 16" fill="none" xmlns="http://www.w3.org/2000/svg">
<mask id="mask0_8251_1286" style="mask-type:alpha" maskUnits="userSpaceOnUse" x="0" y="0" width="16" height="16">
<rect width="16" height="16" fill="#D9D9D9"/>
</mask>
<g mask="url(#mask0_8251_1286)">
<path d="M8.00008 7.99998C8.36675 7.99998 8.68064 7.86942 8.94175 7.60831C9.20286 7.3472 9.33342 7.03331 9.33342 6.66665C9.33342 6.29998 9.20286 5.98609 8.94175 5.72498C8.68064 5.46387 8.36675 5.33331 8.00008 5.33331C7.63341 5.33331 7.31953 5.46387 7.05841 5.72498C6.7973 5.98609 6.66675 6.29998 6.66675 6.66665C6.66675 7.03331 6.7973 7.3472 7.05841 7.60831C7.31953 7.86942 7.63341 7.99998 8.00008 7.99998ZM8.00008 14.6666C6.21119 13.1444 4.87508 11.7305 3.99175 10.425C3.10841 9.11942 2.66675 7.91109 2.66675 6.79998C2.66675 5.13331 3.20286 3.80554 4.27508 2.81665C5.3473 1.82776 6.58897 1.33331 8.00008 1.33331C9.41119 1.33331 10.6529 1.82776 11.7251 2.81665C12.7973 3.80554 13.3334 5.13331 13.3334 6.79998C13.3334 7.91109 12.8917 9.11942 12.0084 10.425C11.1251 11.7305 9.78897 13.1444 8.00008 14.6666Z" fill="#101763"/>
</g>
</svg>
