<svg width="16" height="16" viewBox="0 0 16 16" fill="none" xmlns="http://www.w3.org/2000/svg">
<mask id="mask0_8251_1297" style="mask-type:alpha" maskUnits="userSpaceOnUse" x="0" y="0" width="16" height="16">
<rect width="16" height="16" fill="#D9D9D9"/>
</mask>
<g mask="url(#mask0_8251_1297)">
<path d="M11.3333 14.6666C10.7777 14.6666 10.3055 14.4722 9.91659 14.0833C9.5277 13.6944 9.33325 13.2222 9.33325 12.6666C9.33325 12.6 9.34992 12.4444 9.38325 12.2L4.69992 9.46665C4.52214 9.63331 4.31659 9.76387 4.08325 9.85831C3.84992 9.95276 3.59992 9.99998 3.33325 9.99998C2.7777 9.99998 2.30547 9.80553 1.91659 9.41665C1.5277 9.02776 1.33325 8.55553 1.33325 7.99998C1.33325 7.44442 1.5277 6.9722 1.91659 6.58331C2.30547 6.19442 2.7777 5.99998 3.33325 5.99998C3.59992 5.99998 3.84992 6.0472 4.08325 6.14165C4.31659 6.23609 4.52214 6.36665 4.69992 6.53331L9.38325 3.79998C9.36103 3.7222 9.34714 3.6472 9.34159 3.57498C9.33603 3.50276 9.33325 3.4222 9.33325 3.33331C9.33325 2.77776 9.5277 2.30554 9.91659 1.91665C10.3055 1.52776 10.7777 1.33331 11.3333 1.33331C11.8888 1.33331 12.361 1.52776 12.7499 1.91665C13.1388 2.30554 13.3333 2.77776 13.3333 3.33331C13.3333 3.88887 13.1388 4.36109 12.7499 4.74998C12.361 5.13887 11.8888 5.33331 11.3333 5.33331C11.0666 5.33331 10.8166 5.28609 10.5833 5.19165C10.3499 5.0972 10.1444 4.96665 9.96659 4.79998L5.28325 7.53331C5.30547 7.61109 5.31936 7.68609 5.32492 7.75831C5.33047 7.83053 5.33325 7.91109 5.33325 7.99998C5.33325 8.08887 5.33047 8.16942 5.32492 8.24165C5.31936 8.31387 5.30547 8.38887 5.28325 8.46665L9.96659 11.2C10.1444 11.0333 10.3499 10.9028 10.5833 10.8083C10.8166 10.7139 11.0666 10.6666 11.3333 10.6666C11.8888 10.6666 12.361 10.8611 12.7499 11.25C13.1388 11.6389 13.3333 12.1111 13.3333 12.6666C13.3333 13.2222 13.1388 13.6944 12.7499 14.0833C12.361 14.4722 11.8888 14.6666 11.3333 14.6666Z" fill="#101763"/>
</g>
</svg>
